<?xml version="1.0" encoding="UTF-8" standalone="no"?>
<!-- Created with Inkscape (http://www.inkscape.org/) -->

<svg
   xmlns:dc="http://purl.org/dc/elements/1.1/"
   xmlns:cc="http://creativecommons.org/ns#"
   xmlns:rdf="http://www.w3.org/1999/02/22-rdf-syntax-ns#"
   xmlns:svg="http://www.w3.org/2000/svg"
   xmlns="http://www.w3.org/2000/svg"
   xmlns:sodipodi="http://sodipodi.sourceforge.net/DTD/sodipodi-0.dtd"
   xmlns:inkscape="http://www.inkscape.org/namespaces/inkscape"
   id="svg2"
   version="1.1"
   inkscape:version="0.48.4 r9939"
   xml:space="preserve"
   width="652.37701"
   height="211.63275"
   viewBox="0 0 652.37701 211.63275"
   sodipodi:docname="logo-mobile.svg"><metadata
     id="metadata8"><rdf:RDF><cc:Work
         rdf:about=""><dc:format>image/svg+xml</dc:format><dc:type
           rdf:resource="http://purl.org/dc/dcmitype/StillImage" /><dc:title></dc:title></cc:Work></rdf:RDF></metadata><defs
     id="defs6"><clipPath
       clipPathUnits="userSpaceOnUse"
       id="clipPath16"><path
         d="M 0,438 562,438 562,0 0,0 0,438 z"
         id="path18"
         inkscape:connector-curvature="0" /></clipPath></defs><sodipodi:namedview
     pagecolor="#ffffff"
     bordercolor="#666666"
     borderopacity="1"
     objecttolerance="10"
     gridtolerance="10"
     guidetolerance="10"
     inkscape:pageopacity="0"
     inkscape:pageshadow="2"
     inkscape:window-width="1301"
     inkscape:window-height="744"
     id="namedview4"
     showgrid="false"
     inkscape:zoom="0.43105023"
     inkscape:cx="327.258"
     inkscape:cy="251.8775"
     inkscape:window-x="65"
     inkscape:window-y="336"
     inkscape:window-maximized="1"
     inkscape:current-layer="g10"
     fit-margin-top="0"
     fit-margin-left="0"
     fit-margin-right="0"
     fit-margin-bottom="0" /><g
     id="g10"
     inkscape:groupmode="layer"
     inkscape:label="Marca Virada Cultural BH"
     transform="matrix(1.25,0,0,-1.25,-23.992,233.50525)"><g
       id="g110"
       transform="translate(169.3325,58.8232)"><path
         d="m 0,0 0,66.724 c 0,1.483 -0.584,2.858 -1.736,4.086 -1.178,1.246 -2.539,1.877 -4.05,1.877 l -4.798,0 0,18.775 17.855,0 c 1.487,0 3.093,-0.33 4.771,-0.979 1.689,-0.654 3.238,-1.566 4.603,-2.711 1.356,-1.139 2.484,-2.46 3.356,-3.93 0.826,-1.391 1.243,-2.817 1.243,-4.238 l 0,-4.374 2.259,0 0.342,0.621 c 1.265,2.299 2.617,4.593 4.021,6.818 1.348,2.134 2.997,4.064 4.896,5.74 1.887,1.664 4.113,3.016 6.62,4.02 2.494,0.996 5.579,1.502 9.171,1.502 0.778,0 1.548,-0.03 2.291,-0.086 0.414,-0.032 0.841,-0.074 1.275,-0.125 l 0,-22.58 c -0.719,0.089 -1.469,0.132 -2.242,0.132 l -3.617,0 c -4.977,0 -9.063,-0.718 -12.143,-2.137 C 31.009,67.706 28.542,65.804 26.782,63.479 25.034,61.17 23.835,58.58 23.215,55.782 22.61,53.071 22.304,50.34 22.304,47.669 L 22.304,0 0,0 z"
         style="fill:#1d1d1b;fill-opacity:1;fill-rule:nonzero;stroke:none"
         id="path112"
         inkscape:connector-curvature="0" /></g><g
       id="g114"
       transform="translate(270.6128,135.2832)"><path
         d="m 0,0 c -5.032,0 -9.167,-1.025 -12.288,-3.047 -3.095,-2.008 -5.516,-4.555 -7.192,-7.57 -1.649,-2.971 -2.792,-6.254 -3.398,-9.762 -0.6,-3.433 -0.902,-6.717 -0.902,-9.762 0,-3.166 0.302,-6.51 0.902,-9.943 0.606,-3.508 1.749,-6.793 3.398,-9.76 1.682,-3.028 4.108,-5.549 7.205,-7.493 3.111,-1.954 7.242,-2.945 12.275,-2.945 4.913,0 9.01,0.989 12.178,2.943 3.16,1.942 5.617,4.464 7.303,7.495 1.644,2.957 2.787,6.242 3.398,9.76 0.598,3.451 0.901,6.796 0.901,9.943 0,3.026 -0.303,6.31 -0.901,9.762 -0.611,3.516 -1.754,6.801 -3.4,9.762 C 17.803,-7.6 15.35,-5.049 12.193,-3.041 9.011,-1.023 4.912,0 0,0 m -3.176,-78.932 c -6.184,0 -11.983,0.967 -17.238,2.876 -5.218,1.896 -9.848,4.863 -13.76,8.824 -3.916,3.964 -7.028,9.075 -9.251,15.187 -2.231,6.144 -3.365,13.515 -3.365,21.904 0,8.368 1.304,15.687 3.873,21.755 2.565,6.064 6.03,11.151 10.296,15.12 4.266,3.975 9.26,6.985 14.842,8.947 5.609,1.968 11.59,2.967 17.779,2.967 2.242,0 4.647,-0.291 7.146,-0.862 2.494,-0.575 4.912,-1.391 7.184,-2.424 2.261,-1.032 4.42,-2.284 6.412,-3.719 1.952,-1.416 3.561,-2.93 4.782,-4.498 l 2.137,-2.749 0,10.86 20.188,0 0,-66.828 c 0,-1.372 0.546,-2.695 1.622,-3.926 1.113,-1.277 2.397,-1.929 3.809,-1.929 l 5.154,0 0,-19.003 -19.797,0 c -1.024,0 -2.209,0.27 -3.525,0.803 -1.34,0.542 -2.59,1.313 -3.723,2.297 -1.128,0.978 -2.076,2.16 -2.822,3.51 -0.717,1.295 -1.082,2.748 -1.082,4.32 l 0,2.5 -2.254,0.572 C 22.532,-67.555 18.59,-71.627 13.523,-74.536 8.436,-77.453 2.819,-78.932 -3.176,-78.932"
         style="fill:#1d1d1b;fill-opacity:1;fill-rule:nonzero;stroke:none"
         id="path116"
         inkscape:connector-curvature="0" /></g><g
       id="g118"
       transform="translate(378.5225,135.7852)"><path
         d="m 0,0 c -7.783,0 -13.544,-2.472 -17.12,-7.35 -3.485,-4.755 -5.252,-11.446 -5.252,-19.885 0,-5.928 0.643,-10.867 1.912,-14.681 1.28,-3.857 2.995,-6.969 5.101,-9.253 2.118,-2.307 4.536,-3.944 7.196,-4.866 2.578,-0.899 5.15,-1.354 7.635,-1.354 1.394,0 3.269,0.262 5.73,0.801 2.517,0.551 5.06,1.841 7.555,3.838 2.485,1.996 4.644,4.967 6.42,8.832 1.767,3.854 2.661,9.063 2.661,15.482 0,9.62 -2.087,16.832 -6.204,21.434 C 11.473,-2.355 6.213,0 0,0 m 35.987,-77.018 c -3.838,0 -7.134,0.94 -9.8,2.788 -2.571,1.781 -3.819,4.082 -3.819,7.027 l 0,7.341 -2.222,0 -0.35,-0.554 c -0.949,-1.496 -2.065,-3.156 -3.32,-4.925 -1.229,-1.737 -2.842,-3.418 -4.803,-4.995 -1.945,-1.569 -4.356,-2.89 -7.161,-3.926 -2.794,-1.031 -6.152,-1.554 -9.983,-1.554 -7.051,0 -13.148,1.366 -18.119,4.056 -4.989,2.699 -9.158,6.361 -12.389,10.883 -3.255,4.551 -5.658,9.788 -7.144,15.57 -1.498,5.821 -2.258,11.959 -2.258,18.242 0,4.69 0.673,9.764 1.996,15.079 1.313,5.271 3.512,10.197 6.54,14.638 3,4.407 6.996,8.098 11.882,10.969 4.845,2.848 10.929,4.293 18.081,4.293 6.013,0 11.231,-1.082 15.506,-3.217 4.227,-2.106 7.619,-5.435 10.079,-9.891 l 0.339,-0.615 2.269,0 0,31.181 c 0,2.482 0.389,4.739 1.157,6.708 0.762,1.963 1.781,3.625 3.023,4.941 1.232,1.303 2.643,2.307 4.197,2.985 1.541,0.672 3.069,1.013 4.537,1.013 l 19.972,0 0,-18.255 -4.271,0 c -1.616,0 -3.089,-0.635 -4.373,-1.885 -1.286,-1.252 -1.94,-2.683 -1.94,-4.254 l 0,-79.42 c 0,-1.48 0.727,-2.869 2.158,-4.125 1.397,-1.222 2.853,-1.844 4.333,-1.844 l 4.093,0 0,-18.254 -18.21,0 z"
         style="fill:#1d1d1b;fill-opacity:1;fill-rule:nonzero;stroke:none"
         id="path120"
         inkscape:connector-curvature="0" /></g><g
       id="g122"
       transform="translate(482.6592,135.2832)"><path
         d="m 0,0 c -5.03,0 -9.165,-1.025 -12.29,-3.047 -3.094,-2.01 -5.514,-4.555 -7.189,-7.57 -1.65,-2.971 -2.793,-6.254 -3.4,-9.764 -0.597,-3.431 -0.899,-6.717 -0.899,-9.76 0,-3.162 0.302,-6.508 0.9,-9.943 0.606,-3.508 1.749,-6.793 3.397,-9.76 1.685,-3.028 4.108,-5.548 7.207,-7.491 3.11,-1.956 7.241,-2.947 12.274,-2.947 4.913,0 9.013,0.989 12.18,2.943 3.16,1.942 5.618,4.464 7.301,7.495 1.645,2.955 2.789,6.24 3.401,9.76 0.596,3.456 0.9,6.801 0.9,9.943 0,3.021 -0.304,6.306 -0.9,9.762 -0.612,3.516 -1.756,6.801 -3.399,9.762 -1.679,3.017 -4.132,5.568 -7.289,7.576 C 9.015,-1.023 4.913,0 0,0 m -3.175,-78.932 c -6.185,0 -11.984,0.967 -17.236,2.876 -5.219,1.894 -9.849,4.863 -13.76,8.824 -3.918,3.962 -7.028,9.072 -9.25,15.186 -2.234,6.144 -3.366,13.513 -3.366,21.905 0,8.37 1.302,15.688 3.872,21.754 2.566,6.063 6.03,11.15 10.293,15.124 4.268,3.97 9.264,6.98 14.846,8.944 5.607,1.968 11.588,2.967 17.776,2.967 2.243,0 4.647,-0.291 7.146,-0.862 2.494,-0.575 4.912,-1.391 7.185,-2.424 2.266,-1.036 4.424,-2.288 6.412,-3.719 1.955,-1.418 3.566,-2.933 4.779,-4.497 l 2.139,-2.755 0,10.865 20.188,0 0,-66.828 c 0,-1.373 0.548,-2.695 1.627,-3.926 1.108,-1.277 2.392,-1.929 3.806,-1.929 l 5.154,0 0,-19.003 -19.798,0 c -1.023,0 -2.209,0.27 -3.524,0.803 -1.342,0.543 -2.594,1.315 -3.725,2.297 -1.126,0.978 -2.075,2.16 -2.822,3.51 -0.717,1.299 -1.081,2.752 -1.081,4.32 l 0,2.5 -2.255,0.572 c -2.697,-5.127 -6.638,-9.199 -11.709,-12.108 -5.086,-2.917 -10.703,-4.396 -16.697,-4.396"
         style="fill:#1d1d1b;fill-opacity:1;fill-rule:nonzero;stroke:none"
         id="path124"
         inkscape:connector-curvature="0" /></g><g
       id="g126"
       transform="translate(143.7139,17.498)"
       style="fill:#ffffff"><path
         d="m 0,0 c -3.937,0 -7.18,1.329 -9.914,4.059 -2.732,2.736 -4.06,5.978 -4.06,9.916 0,3.82 1.328,7.007 4.06,9.739 2.731,2.731 5.975,4.059 9.914,4.059 3.824,0 7.01,-1.328 9.739,-4.059 2.732,-2.729 4.059,-5.913 4.059,-9.739 0,-3.94 -1.327,-7.186 -4.057,-9.916 C 7.007,1.328 3.822,0 0,0"
         style="fill:#ffffff;fill-opacity:1;fill-rule:nonzero;stroke:none"
         id="path128"
         inkscape:connector-curvature="0" /></g><g
       id="g130"
       transform="translate(58.5166,58.8232)"><path
         d="m 0,0 -23.85,68.236 c -0.444,1.292 -1.368,2.414 -2.742,3.329 -1.363,0.899 -2.788,1.356 -4.241,1.356 l -8.49,0 0,18.918 17.444,0 c 2.02,0 3.983,-0.387 5.839,-1.148 1.884,-0.774 3.685,-1.872 5.352,-3.262 1.668,-1.395 3.126,-3.062 4.332,-4.953 1.21,-1.895 2.116,-3.934 2.695,-6.055 l 15.602,-53.963 2.17,0 16.337,53.932 c 0.573,1.994 1.556,3.923 2.926,5.75 1.387,1.845 3.03,3.495 4.888,4.9 1.848,1.399 3.909,2.568 6.126,3.475 2.156,0.877 4.275,1.324 6.295,1.324 l 14.888,0 0,-18.918 -8.856,0 c -1.423,0 -2.883,-0.41 -4.34,-1.216 -1.537,-0.85 -2.549,-1.958 -3.01,-3.294 L 25.153,0 0,0 z"
         style="fill:#1d1d1b;fill-opacity:1;fill-rule:nonzero;stroke:none"
         id="path132"
         inkscape:connector-curvature="0" /></g><g
       id="g138"
       transform="translate(152.5708,103.8486)"
       style="fill:#ffffff"><path
         d="m 0,0 0,0.632 -0.002,0 -0.055,32.033 c 0,1.786 -0.276,3.54 -0.818,5.211 -0.539,1.645 -1.38,3.146 -2.502,4.459 -1.121,1.312 -2.56,2.398 -4.283,3.222 -1.709,0.822 -3.795,1.239 -6.195,1.239 l -8.498,0 -0.004,-46.164 0,-0.037 0,-0.635 10e-4,0 0.055,-31.369 c 0,-1.749 0.276,-3.469 0.818,-5.105 0.539,-1.61 1.38,-3.083 2.502,-4.368 1.12,-1.286 2.561,-2.349 4.283,-3.156 1.709,-0.806 3.796,-1.215 6.194,-1.215 l 8.498,0 L 0,-0.04 0,0 z"
         style="fill:#ffffff;fill-opacity:1;fill-rule:nonzero;stroke:none"
         id="path140"
         inkscape:connector-curvature="0" /></g></g></svg>